<svg width="1920" height="1080" viewBox="0 0 1920 1080" fill="none" xmlns="http://www.w3.org/2000/svg">
<rect width="1920" height="1080" fill="#0068FF"/>
<path d="M675.612 438.959C626.572 438.603 586.318 479.097 586.318 528.26V628.961C586.318 632.405 589.168 635.255 592.612 635.255H630.609C634.052 635.255 636.902 632.405 636.902 628.961V528.023C636.902 507.004 653.763 489.666 674.78 489.666C695.798 489.547 712.896 506.648 712.896 527.666V628.961C712.896 632.405 715.746 635.255 719.19 635.255H757.187C760.63 635.255 763.48 632.405 763.48 628.961V527.666C763.717 478.86 724.295 439.197 675.612 438.959Z" fill="white"/>
<path d="M461.286 641.547C405.359 641.547 360 596.184 360 540.252C360 484.32 405.359 438.957 461.286 438.957C517.213 438.957 562.572 484.32 562.572 540.252C562.572 596.184 517.213 641.547 461.286 641.547ZM511.988 540.252C511.988 512.226 489.309 489.545 461.286 489.545C433.263 489.545 410.584 512.226 410.584 540.252C410.584 568.277 433.263 590.959 461.286 590.959C489.309 590.959 511.988 568.277 511.988 540.252Z" fill="white"/>
<path d="M1110.2 498.807C1112.1 501.657 1115.79 502.488 1118.63 500.826L1135.5 491.088L1151.76 481.707C1155.09 479.807 1155.92 475.413 1153.66 472.326C1136.45 449.882 1111.51 438.838 1078.5 438.838C1055.7 438.838 1036.7 444.182 1021.03 455.344C1005.83 466.032 998.232 481.113 998.232 499.876C998.232 517.57 1006.31 531.345 1021.86 541.676C1028.15 545.951 1035.75 549.395 1044.66 552.364C1050.95 554.264 1059.03 556.639 1068.76 558.895C1094.53 564.595 1107.24 571.958 1107.24 580.033C1107.24 591.195 1097.5 596.539 1078.14 596.539C1059.62 596.539 1046.2 590.008 1038.96 576.352C1037.3 573.145 1033.26 572.077 1030.17 573.858L1013.07 583.714L995.619 593.808C992.532 595.589 991.463 599.627 993.482 602.714C1009.87 628.483 1038.13 641.427 1078.14 641.427C1102.25 641.427 1122.08 636.083 1138.46 625.633C1154.97 614.946 1162.93 599.508 1162.93 579.914C1163.4 561.508 1155.33 546.901 1139.3 536.57C1127.9 529.326 1112.22 523.507 1092.39 519.707C1066.63 514.007 1053.92 506.645 1053.92 498.57C1053.92 488.238 1062 482.776 1078.38 482.776C1092.04 483.013 1103.32 488.357 1110.2 498.807Z" fill="white"/>
<path d="M918.789 451.546V552.484C918.789 573.503 901.928 590.841 880.91 590.841C859.893 590.96 842.795 573.859 842.795 552.84V451.546C842.795 448.102 839.945 445.252 836.501 445.252H798.504C795.061 445.252 792.211 448.102 792.211 451.546V552.247C792.211 601.291 832.345 641.785 881.504 641.548C930.188 641.191 969.61 601.647 969.61 552.84V451.546C969.61 448.102 966.76 445.252 963.317 445.252H925.32C921.639 445.252 918.789 448.102 918.789 451.546Z" fill="white"/>
<path d="M1309.57 477.907C1314.44 480.639 1320.49 479.689 1324.29 475.651C1341.63 457.007 1366.45 445.251 1393.88 445.251C1421.42 445.251 1446.12 456.888 1463.46 475.651C1467.26 479.689 1473.31 480.639 1478.18 477.907L1520.1 453.682C1526.39 450.001 1528.05 441.688 1523.42 435.988C1492.91 398.107 1446.24 374 1393.88 374C1341.51 374 1294.85 398.225 1264.33 435.988C1259.82 441.688 1261.48 450.001 1267.65 453.682L1309.57 477.907Z" fill="white"/>
<path d="M1484.6 512.227C1487.57 521.846 1488.99 532.177 1488.76 542.865C1487.45 592.503 1447.08 633.353 1397.44 635.253C1343.3 637.272 1298.77 594.046 1298.77 540.371C1298.77 530.633 1300.2 521.252 1302.93 512.346C1304.59 507.002 1302.33 501.302 1297.58 498.571L1255.67 474.345C1249.37 470.783 1241.3 473.514 1238.69 480.164C1230.85 500.233 1226.93 522.083 1227.53 545.121C1230.02 633.115 1301.86 704.604 1389.84 706.622C1483.41 708.76 1560 633.472 1560 540.371C1560 519.115 1555.96 498.808 1548.72 480.164C1546.11 473.395 1538.03 470.664 1531.74 474.345L1489.82 498.571C1485.19 501.183 1482.94 507.002 1484.6 512.227Z" fill="white"/>
</svg>
